<svg version="1.1" width="100%" viewBox="0 0 1024 1024"
    xmlns="http://www.w3.org/2000/svg">

    <style>
        :root {
            --logo-color: #000000;
        }
        @media (prefers-color-scheme: dark) {
            :root {
                --logo-color: #ffffff;
            }
        }
        path {
            fill: var(--logo-color) !important;
        }
    </style>

    <g transform="matrix(1.5928621,0,0,1.5928621,-304.26562,-314.03853)">
        <path fill="#061740" opacity="1" stroke="none" d="m 305.25748,521.67053 c 28.90597,-28.78857 57.62002,-57.34494 86.15533,-86.07873 3.04645,-3.06772 4.71729,-3.66239 7.77976,-0.11002 6.07693,7.04901 12.61764,13.69818 19.10928,20.66568 6.08539,-5.90881 12.13385,-11.53305 17.90408,-17.42956 20.16382,-20.60508 40.29563,-41.24262 60.27112,-62.02976 3.24722,-3.37912 5.0217,-3.23349 8.19281,0.20511 20.33258,22.04751 40.90717,43.87183 61.41229,65.76013 0.5517,0.5889 1.21717,1.0712 2.35279,2.05774 10.53051,-10.72174 20.96179,-21.34241 30.55102,-31.1058 12.34552,12.03143 24.0932,23.48028 35.91748,35.00375 -0.13855,0.26306 -0.26825,0.8078 -0.61071,1.11627 -10.17945,9.16843 -6.8877,9.34989 -16.2519,0.29968 -5.85022,-5.65411 -11.62866,-11.38256 -17.664,-17.29782 -6.88245,6.80405 -13.72156,13.56089 -20.55499,20.32349 -1.91931,1.89938 -0.3841,3.32013 0.72632,4.73898 4.92962,6.29871 9.94409,12.53211 14.7926,18.89228 1.30615,1.7134 4.7074,3.50412 1.1875,6.01895 -2.71588,1.94037 -4.90051,6.41137 -9.37525,1.60367 -13.16857,-14.14856 -26.70935,-27.9499 -40.03021,-41.95777 -13.55023,-14.24911 -27.0097,-28.58459 -40.52023,-42.87158 -0.65997,-0.69785 -1.23868,-1.60767 -2.94064,-1.42474 -2.08609,11.05578 -3.25901,22.54675 -6.56611,33.38659 -3.66046,11.99811 -1.3684,20.56088 8.70786,28.20972 7.78146,5.90686 14.33841,13.41766 21.52249,20.12674 1.97968,1.84872 3.4541,3.43304 1.68427,6.33984 -7.79786,12.80695 -15.47724,25.68592 -23.22129,38.52573 -0.23684,0.39264 -0.71243,0.64136 -1.09558,0.97351 -1.62164,-0.73895 -0.91986,-1.94629 -0.66757,-2.98614 3.21591,-13.25397 6.32282,-26.53693 9.78021,-39.72791 0.81153,-3.09619 -0.10882,-4.51972 -2.51837,-6.05191 -9.69992,-6.16815 -19.25839,-12.55917 -28.97653,-18.69782 -3.43543,-2.16998 -4.35318,-4.423 -3.34012,-8.64624 3.32388,-13.85653 6.01331,-27.86526 8.97428,-41.94723 -2.41425,-0.23404 -3.19617,1.24689 -4.16297,2.23175 -17.16049,17.48135 -34.21069,35.07187 -51.47906,52.44559 -3.26984,3.28973 -2.95459,5.40057 0.0835,8.54706 12.38501,12.82681 24.55503,25.86123 36.80274,38.82055 4.0123,4.24539 4.04434,4.76096 -1.04459,7.53568 -15.79581,8.61254 -31.65747,17.10449 -47.50812,25.61615 -0.83374,0.44775 -1.80175,0.6455 -2.87851,1.01898 -0.73022,-2.15448 0.90897,-2.90497 1.80133,-3.85394 8.79483,-9.35328 18.00559,-18.28815 27.54572,-26.87586 2.24457,-2.02051 2.9791,-3.72919 0.61658,-6.19192 -12.80484,-13.34824 -25.5401,-26.76319 -38.31833,-40.137 -0.30109,-0.31509 -0.82495,-0.4173 -1.2775,-0.63446 -0.15787,0.40821 -0.43518,0.76087 -0.35055,0.95892 3.95031,9.24814 -0.73212,15.61606 -6.79648,21.9003 -5.61984,5.82364 -10.67072,12.19629 -15.99466,18.35321 -1.85333,-1.6072 -0.64542,-2.79837 -0.25476,-3.90405 3.0506,-8.63507 6.41583,-17.16797 9.18466,-25.8909 2.38388,-7.51031 -1.23215,-14.61813 -1.91116,-22.78381 -8.52976,7.14734 -15.26844,14.72427 -22.42069,21.85998 -19.69949,19.65403 -39.21319,39.49585 -59.05426,59.00513 -4.65329,4.57556 -6.8902,8.8089 -5.59228,15.7356 2.36511,12.62237 5.07107,25.09613 9.12579,37.27826 0.51254,1.53979 1.50998,3.04199 0.46951,5.46789 -8.11618,-0.55182 -15.95984,-2.6333 -23.11627,-7.00091 -0.93182,-0.56867 -1.31082,-2.26758 -1.66699,-3.52216 -8.74488,-30.80139 -11.38251,-61.9989 -7.28086,-93.88403 4.44767,-34.57453 14.95783,-67.04569 33.83671,-96.26309 34.43481,-53.292 82.50054,-88.22681 144.59021,-102.55787 55.86282,-12.89389 109.4667,-5.72348 160.42453,20.64685 13.96258,7.22556 26.62341,16.45032 39.22723,25.76899 2.78735,2.06085 2.85339,4.52414 2.59601,7.46835 -0.29395,3.3623 -2.95801,3.44165 -5.23261,4.38513 -9.16888,3.80347 -16.29974,2.05829 -24.84655,-3.99765 -30.58698,-21.67282 -65.01655,-34.61252 -102.47712,-37.47406 -42.34698,-3.2348 -82.45608,5.36685 -119.72458,26.33435 -59.11856,33.26047 -92.89526,84.23386 -105.31472,150.16257 -2.13019,11.30829 -2.71497,22.80707 -2.57706,34.32196 0.0314,2.62237 0.0756,2.62183 2.28815,3.22363 z" />
        <path fill="#061740" opacity="1" stroke="none" d="m 704.26691,607.55554 c 9.08282,-18.97552 13.71563,-38.86676 17.203,-59.08838 0.48859,-2.83294 -1.70258,-4.18365 -3.28833,-5.78747 -18.62964,-18.84119 -37.31177,-37.63053 -55.91565,-56.49701 -1.68225,-1.70593 -4.89288,-3.28925 -4.04413,-5.81339 1.1496,-3.41912 4.25867,-5.91311 7.21839,-8.04284 1.77984,-1.2807 3.05859,0.6846 4.15429,1.7948 6.20301,6.28524 12.21753,12.7597 18.50556,18.95724 11.48632,11.32089 23.11902,22.49335 34.80883,33.84241 0.19934,-1.76654 0.69403,-4.00055 0.66608,-6.22797 -0.39178,-31.1474 -5.79248,-61.27121 -19.21399,-89.58597 -1.93732,-4.08697 -0.0339,-6.08017 1.99835,-8.70028 2.16565,-2.79221 4.44367,-1.19422 6.73182,-0.37964 0.78387,0.27905 1.52026,0.78076 2.32159,0.90744 10.05182,1.58884 14.10101,8.20431 17.05713,17.44849 9.74554,30.47534 14.66186,61.53024 12.64111,93.44906 -2.52765,39.92615 -14.47412,77.02057 -35.26983,111.23419 -1.05719,1.73932 -2.29371,3.21216 -4.14252,4.20014 -22.3501,11.94268 -44.76532,23.69116 -69.71619,29.52752 -24.12543,5.64338 -48.43915,8.25489 -73.28326,6.79877 -22.99744,-1.34772 -45.66419,-4.54535 -68.14023,-9.38299 -2.10605,-0.45331 -4.15137,-1.21204 -6.19577,-1.91364 -0.58038,-0.1991 -1.05789,-0.69787 -1.46985,-0.98151 -0.20636,-2.08923 1.07898,-2.51904 2.46295,-2.6405 3.48023,-0.30554 6.96833,-0.69903 10.45539,-0.72101 23.33074,-0.14746 46.66284,-0.12005 69.99285,-0.32849 13.32026,-0.11902 26.6449,-0.42523 39.90552,-1.91559 3.13294,-0.35217 6.27966,-0.67224 8.7273,-3.41107 -1.79584,-3.38104 -5.1894,-3.39587 -8.12073,-3.94873 -12.2522,-2.31079 -24.82636,-2.66174 -36.91211,-6.01343 -3.04553,-0.84454 -6.09265,-1.69159 -9.10352,-2.64917 -1.26709,-0.40289 -2.58306,-1.04406 -2.68029,-2.62768 -0.1236,-2.01349 1.56707,-2.43183 2.97046,-2.78607 5.98724,-1.51136 12.07501,-2.46088 18.25817,-2.50184 20.32453,-0.13464 40.6471,0.0165 60.96595,-0.9522 10.9823,-0.52356 21.85589,-2.3888 32.8974,-2.73279 -9.23267,-0.57013 -18.45807,-1.36548 -27.69953,-1.66126 -16.98053,-0.54358 -33.97064,-0.78851 -50.95654,-1.16626 -18.17517,-0.40417 -36.18689,-2.32824 -53.96973,-6.12018 -2.76513,-0.5896 -6.0061,-0.7395 -8.69891,-5.18395 32.2511,-0.31818 63.51916,0.25012 94.7041,-2.24598 -63.73218,-1.98547 -127.49548,0.3689 -191.33478,-0.54364 0.15903,-2.84454 2.2753,-2.70202 3.63828,-3.20721 8.74356,-3.24054 17.55981,-6.29132 26.01303,-10.26264 1.69907,-0.79815 3.42258,-1.10565 5.3074,-1.104 74.32773,0.0655 148.65549,0.10315 222.98325,0.0987 2.43878,-1.2e-4 5.01398,0.66095 7.56769,-1.13397 z" />
        <path fill="#061740" opacity="1" stroke="none" d="m 614.95044,727.19812 c -37.94281,8.37836 -75.39471,7.80841 -112.70438,-1.20783 -14.3099,-3.45812 -28.32177,-7.91674 -41.94879,-13.98602 1.72196,-2.91461 3.65317,-1.58563 5.20801,-1.15338 30.616,8.51068 61.88791,10.90332 93.47806,9.69061 8.25586,-0.31689 16.6015,-1.17273 24.75464,-4.20623 -15.49054,-1.32856 -30.83039,-1.56525 -46.12232,-2.78357 -27.2547,-2.17145 -54.13644,-6.56141 -80.92773,-11.70368 -31.50858,-6.04785 -62.63514,-14.13855 -94.52225,-18.14313 -23.77017,-2.98529 -47.58109,-5.96148 -71.63611,-3.43548 -0.91348,0.0959 -1.9797,0.6026 -2.77621,-0.52814 0.0129,-1.74035 1.53216,-1.94794 2.68502,-2.39129 27.93009,-10.73914 56.83994,-14.80268 86.67835,-12.97791 38.02753,2.3255 74.94922,11.10449 112.08829,18.71967 35.14575,7.20642 70.61493,12.0711 106.57373,9.45513 34.03174,-2.47576 66.74206,-10.19982 96.27179,-28.34039 0.56518,-0.34723 1.15808,-0.66125 1.76898,-0.91699 0.28223,-0.11816 0.63891,-0.0586 1.30359,-0.10193 0.49853,3.2461 -1.93396,5.01831 -3.58856,6.99786 -16.05634,19.2096 -35.04944,34.99012 -56.20136,48.31159 -6.26135,3.94348 -12.55871,7.49255 -20.38275,8.70111 z" />
        <path fill="#061740" opacity="1" stroke="none" d="m 768.51404,334.50989 c -10.79199,13.13937 -21.26502,26.08133 -31.99536,38.80624 -2.88947,3.42661 -3.34412,6.01383 -0.75843,10.00192 10.05304,15.50593 19.71149,31.26767 29.50702,46.94031 0.8606,1.37702 1.65027,2.7984 2.39533,4.06726 -1.23114,1.68421 -2.28815,0.82099 -3.30762,0.4112 -17.91028,-7.1995 -35.85388,-14.31833 -53.69464,-21.68644 -3.38202,-1.39672 -5.28784,-0.86325 -7.55878,1.97184 -11.55224,14.42172 -23.31891,28.67172 -35.0119,42.98068 -0.94037,1.15069 -1.74402,2.46808 -3.68017,2.9082 -1.59168,-2.55118 -0.67054,-5.38272 -0.52478,-8.02633 0.99816,-18.09583 2.04022,-36.19034 3.27709,-54.27097 0.2381,-3.48105 -1.92871,-4.20724 -4.25702,-5.13873 -17.30731,-6.92429 -34.62054,-13.83402 -51.92779,-20.75861 -1.61279,-0.64532 -3.50482,-0.90796 -4.85315,-3.43036 9.39295,-2.25818 18.34473,-4.41421 27.29846,-6.56198 10.34796,-2.48218 20.6615,-5.12622 31.06452,-7.35165 4.14593,-0.88691 5.91113,-2.98642 6.14306,-7.05292 1.02301,-17.93027 2.14057,-35.85516 3.22718,-53.7818 0.13781,-2.27219 -0.11609,-4.62552 1.07257,-6.75143 2.42285,0.41616 2.93139,2.3876 3.8399,3.84826 9.67291,15.5528 19.4433,31.04907 28.80939,46.78556 2.2027,3.70083 4.34454,4.06518 8.03607,2.99029 18.0434,-5.25387 36.13971,-10.32651 54.23401,-15.40375 1.52624,-0.42828 3.0694,-1.40927 5.05365,-0.46481 -0.86939,3.76474 -4.11066,5.8288 -6.38861,8.96802 z" />
        <path fill="#061740" opacity="1" stroke="none" d="m 617.41553,491.40457 c 13.12726,-11.94949 25.62543,-24.05249 38.66894,-37.31277 0.22479,9.94818 1.21247,17.76025 -6.3786,25.26519 -64.57172,63.83912 -138.50183,112.31116 -225.69229,139.36182 -30.67221,9.51599 -61.99557,15.60333 -94.25232,15.38501 -16.23529,-0.10986 -32.2204,-2.2757 -47.29489,-8.89001 -18.66895,-8.19153 -30.55905,-21.59687 -32.31615,-42.57416 -0.81009,-9.67102 1.80271,-18.81592 5.16571,-27.73859 3.72786,-9.89068 9.25896,-18.81311 15.2708,-27.44824 0.43558,-0.62567 1.13055,-1.07068 2.10111,-1.96454 1.29534,5.24408 1.66061,9.37616 -1.38959,14.00116 -6.11222,9.26782 -10.13745,19.60523 -10.66648,30.82581 -0.68588,14.54748 5.11731,26.21698 17.04715,34.68512 10.90088,7.73761 23.37766,11.14209 36.41663,12.64929 32.31537,3.73523 63.63861,-2.08313 94.67563,-10.25269 48.14667,-12.67322 92.25744,-34.29535 134.28979,-60.56524 26.21088,-16.3816 50.69641,-35.04557 74.35456,-55.42716 z" />
        <path fill="#061740" opacity="1" stroke="none" d="m 415.82346,661.33173 c -18.54627,-2.82837 -36.70963,-5.1164 -55.07593,-4.99286 -10.32859,0.0694 -20.61557,0.94854 -30.83759,2.4588 -1.51507,0.22394 -3.01397,0.7207 -4.10644,-0.77155 -3.89395,-5.31866 -7.62842,-10.73767 -11.00583,-17.27465 4.00082,0 7.10333,-0.0859 10.19983,0.0137 24.11102,0.77539 48.0032,-1.53998 71.26767,-7.58753 13.22259,-3.43719 26.28048,-3.50659 39.57852,-3.06048 15.14914,0.5083 30.29404,1.16125 45.44565,1.5711 18.89068,0.51105 37.27316,4.69245 55.84018,7.53394 1.58734,0.24292 3.83624,0.32239 4.07269,4.05975 -43.68869,1.7027 -87.396,0.58075 -130.92999,4.03735 13.57153,2.33625 27.31466,2.4762 40.98565,3.17249 21.45499,1.09265 42.95575,1.26782 64.41614,2.27728 20.65619,0.97156 40.95215,4.77082 61.16773,8.94745 1.01733,0.21008 1.89733,0.56244 2.19763,2.02405 -3.85956,1.34674 -7.83002,1.24597 -11.74341,1.26446 -27.66589,0.13099 -55.33273,0.11915 -82.99783,0.3379 -6.76578,0.0535 -13.71961,-0.1922 -19.60227,4.34222 -1.41644,1.0918 -3.18033,0.40924 -4.82715,0.0252 -14.42395,-3.36469 -28.98123,-6.04114 -44.04525,-8.37854 z" />
        <path fill="#061740" opacity="1" stroke="none" d="m 395.93848,593.76868 c 43.80972,-10.56958 84.29757,-28.26807 123.03155,-50.13745 46.8147,-26.43183 89.81659,-57.9683 127.45807,-96.54325 3.31427,-3.39648 6.55615,-6.86365 10.62347,-11.1282 0.46198,4.60357 0.83545,7.62152 -1.87219,10.3778 -20.20599,20.56858 -40.73541,40.80124 -63.41021,58.67719 -54.97284,43.33826 -115.09867,77.00366 -182.87668,95.84094 -28.14765,7.82294 -56.7797,12.99726 -86.23999,11.45246 -12.61573,-0.6615 -24.73453,-3.22834 -35.95945,-9.24469 -10.97259,-5.88117 -18.19827,-14.6576 -19.41699,-27.28919 -0.88049,-9.12585 1.7973,-17.77734 5.51923,-26.06415 0.22006,-0.48999 0.93774,-0.75647 1.77237,-1.39245 0.66122,3.20544 -0.82459,5.58179 -1.43912,8.04407 -4.11768,16.49969 1.95425,30.16015 17.06372,37.98321 12.47723,6.46021 26.08527,7.93115 39.76209,8.19446 22.25543,0.4284 44.06936,-3.13776 65.98413,-8.77075 z" />
        <path fill="#061740" opacity="1" stroke="none" d="m 474.55878,749.58252 c -25.95053,-3.83521 -49.56833,-13.03741 -72.28952,-24.93775 -15.1496,-7.93457 -29.01871,-17.63549 -41.64389,-29.13446 -1.16361,-1.05987 -2.82569,-1.87133 -3.00534,-4.60565 4.63891,0.75971 9.07818,1.49024 13.5187,2.21314 5.57965,0.90826 11.16303,1.79364 16.73972,2.71924 6.89514,1.14447 13.42563,2.77026 19.64425,6.59137 20.0831,12.34014 41.98587,19.92083 65.32627,23.52588 12.0152,1.85577 23.15884,7.18029 35.2131,9.23962 20.72656,3.54089 41.51001,5.88959 62.55701,5.44958 5.03503,-0.10522 10.04425,-1.73156 15.13495,-0.0406 -36.07257,13.29755 -73.16156,14.29249 -111.19525,8.97962 z" />
        <path fill="#061740" opacity="1" stroke="none" d="m 620.78998,517.33008 c -0.0914,-3.66638 1.5957,-5.63101 4.2041,-2.69904 5.26569,5.91852 9.87793,12.41883 14.72815,18.70356 0.11029,0.14288 -0.15491,0.57562 -0.60712,2.06964 -6.31116,-6.18219 -12.23071,-11.98084 -18.32513,-18.07416 z" />
    </g>
</svg>
